
<svg width="49" height="45" viewBox="0 0 49 45" fill="none" xmlns="http://www.w3.org/2000/svg">
<path fill-rule="evenodd" clip-rule="evenodd" d="M13.6026 5.9811C19.092 -1.71755 34.3554 -0.646428 42.5895 6.78443C58.1206 20.7759 37.9704 55.2524 19.092 41.4618C18.6233 41.1271 18.1547 40.7924 17.6861 40.3907C11.728 35.2359 6.90796 27.939 11.9958 9.32833C12.3305 8.05638 12.933 6.98527 13.6026 5.9811Z" fill="#1AA0E8"/>
<path fill-rule="evenodd" clip-rule="evenodd" d="M13.6025 5.98107C29.4683 -0.512566 49.3508 15.0856 33.8866 32.4242C30.2716 36.4409 24.6483 39.989 19.0919 41.4618C15.0753 42.5329 11.0586 42.4659 7.91225 40.6584C0.347497 36.4409 -1.52696 21.4453 4.29723 13.4119C6.97498 9.79691 10.1884 7.3869 13.6025 5.98107Z" fill="#0B63CE"/>
<path d="M33.8866 32.4242C49.3508 15.0856 29.4683 -0.512566 13.6024 5.98107C12.933 6.98524 12.3305 8.05636 11.9958 9.32831C6.90799 27.9389 11.728 35.2359 17.6861 40.3907C18.1547 40.7923 18.6233 41.1271 19.0919 41.4618C24.6483 39.989 30.2716 36.4409 33.8866 32.4242Z" fill="#134194"/>
</svg>
